<svg width="228" height="40" viewBox="0 0 228 40" fill="none" xmlns="http://www.w3.org/2000/svg">
<g filter="url(#filter0_d_1152_10)">
<rect x="2" y="1" width="224" height="36" rx="8" fill="#00AE1C"/>
<path d="M97.5308 15.9645L97.5306 15.9643L97.4975 15.9975L89.4975 23.9975L89.4974 23.9975C89.4321 24.0631 89.3545 24.1151 89.269 24.1506C89.1835 24.1861 89.0919 24.2043 88.9993 24.2043C88.9068 24.2043 88.8152 24.1861 88.7297 24.1506C88.6442 24.1151 88.5666 24.0631 88.5013 23.9975L88.5012 23.9975L85.0012 20.4975C84.9358 20.4321 84.8839 20.3544 84.8485 20.269C84.8131 20.1835 84.7949 20.0919 84.7949 19.9994C84.7949 19.9069 84.8131 19.8153 84.8485 19.7298C84.8839 19.6443 84.9358 19.5667 85.0012 19.5013C85.0667 19.4359 85.1443 19.384 85.2298 19.3486C85.3152 19.3132 85.4068 19.295 85.4993 19.295C85.5919 19.295 85.6835 19.3132 85.7689 19.3486C85.8544 19.384 85.932 19.4359 85.9975 19.5013L88.9668 22.4707L89 22.5038L89.0331 22.4707L96.5025 15.0025L96.4693 14.9694L96.5025 15.0025C96.6346 14.8704 96.8138 14.7962 97.0006 14.7962C97.1874 14.7962 97.3666 14.8704 97.4987 15.0025C97.6308 15.1346 97.705 15.3138 97.705 15.5006C97.705 15.6718 97.6428 15.8365 97.5308 15.9645Z" fill="white" stroke="white" stroke-width="0.09375"/>
<path d="M108.246 14.7808L104.716 24.5H103.273L107.338 13.8359H108.268L108.246 14.7808ZM111.205 24.5L107.667 14.7808L107.645 13.8359H108.575L112.655 24.5H111.205ZM111.022 20.5522V21.7095H105.031V20.5522H111.022ZM118.573 22.9619V13.25H119.936V24.5H118.691L118.573 22.9619ZM113.241 20.6255V20.4717C113.241 19.8662 113.315 19.3169 113.461 18.8237C113.612 18.3257 113.825 17.8984 114.098 17.542C114.377 17.1855 114.706 16.9121 115.087 16.7217C115.473 16.5264 115.902 16.4287 116.376 16.4287C116.874 16.4287 117.309 16.5166 117.68 16.6924C118.056 16.8633 118.373 17.1147 118.632 17.4468C118.896 17.7739 119.103 18.1694 119.254 18.6333C119.406 19.0972 119.511 19.6221 119.569 20.208V20.8818C119.516 21.4629 119.411 21.9854 119.254 22.4492C119.103 22.9131 118.896 23.3086 118.632 23.6357C118.373 23.9629 118.056 24.2144 117.68 24.3901C117.304 24.561 116.864 24.6465 116.361 24.6465C115.898 24.6465 115.473 24.5464 115.087 24.3462C114.706 24.146 114.377 23.8652 114.098 23.5039C113.825 23.1426 113.612 22.7178 113.461 22.2295C113.315 21.7363 113.241 21.2017 113.241 20.6255ZM114.604 20.4717V20.6255C114.604 21.021 114.643 21.3921 114.721 21.7388C114.804 22.0854 114.931 22.3906 115.102 22.6543C115.273 22.918 115.49 23.1255 115.754 23.2769C116.017 23.4233 116.332 23.4966 116.698 23.4966C117.148 23.4966 117.516 23.4014 117.804 23.2109C118.097 23.0205 118.332 22.769 118.507 22.4565C118.683 22.144 118.82 21.8047 118.918 21.4385V19.6733C118.859 19.4048 118.774 19.146 118.661 18.897C118.554 18.6431 118.412 18.4185 118.236 18.2231C118.066 18.0229 117.853 17.8643 117.599 17.7471C117.35 17.6299 117.055 17.5713 116.713 17.5713C116.342 17.5713 116.022 17.6494 115.754 17.8057C115.49 17.957 115.273 18.167 115.102 18.4355C114.931 18.6992 114.804 19.0068 114.721 19.3584C114.643 19.7051 114.604 20.0762 114.604 20.4717ZM126.74 22.9619V13.25H128.102V24.5H126.857L126.74 22.9619ZM121.408 20.6255V20.4717C121.408 19.8662 121.481 19.3169 121.628 18.8237C121.779 18.3257 121.992 17.8984 122.265 17.542C122.543 17.1855 122.873 16.9121 123.254 16.7217C123.64 16.5264 124.069 16.4287 124.543 16.4287C125.041 16.4287 125.475 16.5166 125.847 16.6924C126.223 16.8633 126.54 17.1147 126.799 17.4468C127.062 17.7739 127.27 18.1694 127.421 18.6333C127.573 19.0972 127.678 19.6221 127.736 20.208V20.8818C127.683 21.4629 127.578 21.9854 127.421 22.4492C127.27 22.9131 127.062 23.3086 126.799 23.6357C126.54 23.9629 126.223 24.2144 125.847 24.3901C125.471 24.561 125.031 24.6465 124.528 24.6465C124.064 24.6465 123.64 24.5464 123.254 24.3462C122.873 24.146 122.543 23.8652 122.265 23.5039C121.992 23.1426 121.779 22.7178 121.628 22.2295C121.481 21.7363 121.408 21.2017 121.408 20.6255ZM122.77 20.4717V20.6255C122.77 21.021 122.809 21.3921 122.888 21.7388C122.971 22.0854 123.098 22.3906 123.268 22.6543C123.439 22.918 123.657 23.1255 123.92 23.2769C124.184 23.4233 124.499 23.4966 124.865 23.4966C125.314 23.4966 125.683 23.4014 125.971 23.2109C126.264 23.0205 126.498 22.769 126.674 22.4565C126.85 22.144 126.987 21.8047 127.084 21.4385V19.6733C127.026 19.4048 126.94 19.146 126.828 18.897C126.721 18.6431 126.579 18.4185 126.403 18.2231C126.232 18.0229 126.02 17.8643 125.766 17.7471C125.517 17.6299 125.222 17.5713 124.88 17.5713C124.509 17.5713 124.189 17.6494 123.92 17.8057C123.657 17.957 123.439 18.167 123.268 18.4355C123.098 18.6992 122.971 19.0068 122.888 19.3584C122.809 19.7051 122.77 20.0762 122.77 20.4717ZM133.2 24.6465C132.649 24.6465 132.148 24.5537 131.699 24.3682C131.255 24.1777 130.871 23.9116 130.549 23.5698C130.232 23.228 129.988 22.8228 129.817 22.354C129.646 21.8853 129.56 21.3726 129.56 20.8159V20.5083C129.56 19.8638 129.655 19.29 129.846 18.7871C130.036 18.2793 130.295 17.8496 130.622 17.498C130.949 17.1465 131.321 16.8804 131.736 16.6997C132.151 16.519 132.58 16.4287 133.025 16.4287C133.591 16.4287 134.079 16.5264 134.489 16.7217C134.904 16.917 135.244 17.1904 135.508 17.542C135.771 17.8887 135.967 18.2988 136.093 18.7725C136.22 19.2412 136.284 19.7539 136.284 20.3105V20.9185H130.366V19.8125H134.929V19.71C134.909 19.3584 134.836 19.0166 134.709 18.6846C134.587 18.3525 134.392 18.0791 134.123 17.8643C133.855 17.6494 133.488 17.542 133.025 17.542C132.717 17.542 132.434 17.6079 132.175 17.7397C131.916 17.8667 131.694 18.0571 131.508 18.311C131.323 18.5649 131.179 18.875 131.076 19.2412C130.974 19.6074 130.923 20.0298 130.923 20.5083V20.8159C130.923 21.1919 130.974 21.5459 131.076 21.8779C131.184 22.2051 131.338 22.4932 131.538 22.7422C131.743 22.9912 131.989 23.1865 132.278 23.3281C132.571 23.4697 132.903 23.5405 133.274 23.5405C133.752 23.5405 134.157 23.4429 134.489 23.2476C134.821 23.0522 135.112 22.791 135.361 22.4639L136.181 23.1157C136.01 23.3745 135.793 23.6211 135.529 23.8555C135.266 24.0898 134.941 24.2803 134.555 24.4268C134.175 24.5732 133.723 24.6465 133.2 24.6465ZM142.561 22.9619V13.25H143.923V24.5H142.678L142.561 22.9619ZM137.229 20.6255V20.4717C137.229 19.8662 137.302 19.3169 137.449 18.8237C137.6 18.3257 137.812 17.8984 138.086 17.542C138.364 17.1855 138.694 16.9121 139.075 16.7217C139.46 16.5264 139.89 16.4287 140.364 16.4287C140.862 16.4287 141.296 16.5166 141.667 16.6924C142.043 16.8633 142.361 17.1147 142.62 17.4468C142.883 17.7739 143.091 18.1694 143.242 18.6333C143.394 19.0972 143.499 19.6221 143.557 20.208V20.8818C143.503 21.4629 143.398 21.9854 143.242 22.4492C143.091 22.9131 142.883 23.3086 142.62 23.6357C142.361 23.9629 142.043 24.2144 141.667 24.3901C141.292 24.561 140.852 24.6465 140.349 24.6465C139.885 24.6465 139.46 24.5464 139.075 24.3462C138.694 24.146 138.364 23.8652 138.086 23.5039C137.812 23.1426 137.6 22.7178 137.449 22.2295C137.302 21.7363 137.229 21.2017 137.229 20.6255ZM138.591 20.4717V20.6255C138.591 21.021 138.63 21.3921 138.708 21.7388C138.792 22.0854 138.918 22.3906 139.089 22.6543C139.26 22.918 139.478 23.1255 139.741 23.2769C140.005 23.4233 140.32 23.4966 140.686 23.4966C141.135 23.4966 141.504 23.4014 141.792 23.2109C142.085 23.0205 142.319 22.769 142.495 22.4565C142.671 22.144 142.808 21.8047 142.905 21.4385V19.6733C142.847 19.4048 142.761 19.146 142.649 18.897C142.542 18.6431 142.4 18.4185 142.224 18.2231C142.053 18.0229 141.841 17.8643 141.587 17.7471C141.338 17.6299 141.042 17.5713 140.701 17.5713C140.33 17.5713 140.01 17.6494 139.741 17.8057C139.478 17.957 139.26 18.167 139.089 18.4355C138.918 18.6992 138.792 19.0068 138.708 19.3584C138.63 19.7051 138.591 20.0762 138.591 20.4717Z" fill="white"/>
</g>
<defs>
<filter id="filter0_d_1152_10" x="0" y="0" width="228" height="40" filterUnits="userSpaceOnUse" color-interpolation-filters="sRGB">
<feFlood flood-opacity="0" result="BackgroundImageFix"/>
<feColorMatrix in="SourceAlpha" type="matrix" values="0 0 0 0 0 0 0 0 0 0 0 0 0 0 0 0 0 0 127 0" result="hardAlpha"/>
<feOffset dy="1"/>
<feGaussianBlur stdDeviation="1"/>
<feColorMatrix type="matrix" values="0 0 0 0 0.0627451 0 0 0 0 0.0941176 0 0 0 0 0.156863 0 0 0 0.05 0"/>
<feBlend mode="normal" in2="BackgroundImageFix" result="effect1_dropShadow_1152_10"/>
<feBlend mode="normal" in="SourceGraphic" in2="effect1_dropShadow_1152_10" result="shape"/>
</filter>
</defs>
</svg>
