<svg width="228" height="40" viewBox="0 0 228 40" fill="none" xmlns="http://www.w3.org/2000/svg">
<g filter="url(#filter0_d_1152_50)">
<rect x="2" y="1" width="224" height="36" rx="8" fill="#00AE1C"/>
<path d="M82.75 19C82.75 19.1989 82.671 19.3897 82.5303 19.5303C82.3897 19.671 82.1989 19.75 82 19.75H77.25V24.5C77.25 24.6989 77.171 24.8897 77.0303 25.0303C76.8897 25.171 76.6989 25.25 76.5 25.25C76.3011 25.25 76.1103 25.171 75.9697 25.0303C75.829 24.8897 75.75 24.6989 75.75 24.5V19.75H71C70.8011 19.75 70.6103 19.671 70.4697 19.5303C70.329 19.3897 70.25 19.1989 70.25 19C70.25 18.8011 70.329 18.6103 70.4697 18.4697C70.6103 18.329 70.8011 18.25 71 18.25H75.75V13.5C75.75 13.3011 75.829 13.1103 75.9697 12.9697C76.1103 12.829 76.3011 12.75 76.5 12.75C76.6989 12.75 76.8897 12.829 77.0303 12.9697C77.171 13.1103 77.25 13.3011 77.25 13.5V18.25H82C82.1989 18.25 82.3897 18.329 82.5303 18.4697C82.671 18.6103 82.75 18.8011 82.75 19Z" fill="white"/>
<path d="M93.8428 14.7808L90.3125 24.5H88.8696L92.9346 13.8359H93.8647L93.8428 14.7808ZM96.8018 24.5L93.2642 14.7808L93.2422 13.8359H94.1724L98.252 24.5H96.8018ZM96.6187 20.5522V21.7095H90.6274V20.5522H96.6187ZM104.17 22.9619V13.25H105.533V24.5H104.287L104.17 22.9619ZM98.8382 20.6255V20.4717C98.8382 19.8662 98.9114 19.3169 99.0579 18.8237C99.2093 18.3257 99.4217 17.8984 99.6951 17.542C99.9734 17.1855 100.303 16.9121 100.684 16.7217C101.07 16.5264 101.499 16.4287 101.973 16.4287C102.471 16.4287 102.906 16.5166 103.277 16.6924C103.653 16.8633 103.97 17.1147 104.229 17.4468C104.492 17.7739 104.7 18.1694 104.851 18.6333C105.003 19.0972 105.108 19.6221 105.166 20.208V20.8818C105.113 21.4629 105.008 21.9854 104.851 22.4492C104.7 22.9131 104.492 23.3086 104.229 23.6357C103.97 23.9629 103.653 24.2144 103.277 24.3901C102.901 24.561 102.461 24.6465 101.958 24.6465C101.494 24.6465 101.07 24.5464 100.684 24.3462C100.303 24.146 99.9734 23.8652 99.6951 23.5039C99.4217 23.1426 99.2093 22.7178 99.0579 22.2295C98.9114 21.7363 98.8382 21.2017 98.8382 20.6255ZM100.2 20.4717V20.6255C100.2 21.021 100.24 21.3921 100.318 21.7388C100.401 22.0854 100.528 22.3906 100.699 22.6543C100.869 22.918 101.087 23.1255 101.35 23.2769C101.614 23.4233 101.929 23.4966 102.295 23.4966C102.744 23.4966 103.113 23.4014 103.401 23.2109C103.694 23.0205 103.929 22.769 104.104 22.4565C104.28 22.144 104.417 21.8047 104.514 21.4385V19.6733C104.456 19.4048 104.37 19.146 104.258 18.897C104.151 18.6431 104.009 18.4185 103.833 18.2231C103.662 18.0229 103.45 17.8643 103.196 17.7471C102.947 17.6299 102.652 17.5713 102.31 17.5713C101.939 17.5713 101.619 17.6494 101.35 17.8057C101.087 17.957 100.869 18.167 100.699 18.4355C100.528 18.6992 100.401 19.0068 100.318 19.3584C100.24 19.7051 100.2 20.0762 100.2 20.4717ZM112.337 22.9619V13.25H113.699V24.5H112.454L112.337 22.9619ZM107.005 20.6255V20.4717C107.005 19.8662 107.078 19.3169 107.225 18.8237C107.376 18.3257 107.588 17.8984 107.862 17.542C108.14 17.1855 108.47 16.9121 108.851 16.7217C109.236 16.5264 109.666 16.4287 110.14 16.4287C110.638 16.4287 111.072 16.5166 111.443 16.6924C111.819 16.8633 112.137 17.1147 112.396 17.4468C112.659 17.7739 112.867 18.1694 113.018 18.6333C113.17 19.0972 113.275 19.6221 113.333 20.208V20.8818C113.279 21.4629 113.174 21.9854 113.018 22.4492C112.867 22.9131 112.659 23.3086 112.396 23.6357C112.137 23.9629 111.819 24.2144 111.443 24.3901C111.067 24.561 110.628 24.6465 110.125 24.6465C109.661 24.6465 109.236 24.5464 108.851 24.3462C108.47 24.146 108.14 23.8652 107.862 23.5039C107.588 23.1426 107.376 22.7178 107.225 22.2295C107.078 21.7363 107.005 21.2017 107.005 20.6255ZM108.367 20.4717V20.6255C108.367 21.021 108.406 21.3921 108.484 21.7388C108.567 22.0854 108.694 22.3906 108.865 22.6543C109.036 22.918 109.254 23.1255 109.517 23.2769C109.781 23.4233 110.096 23.4966 110.462 23.4966C110.911 23.4966 111.28 23.4014 111.568 23.2109C111.861 23.0205 112.095 22.769 112.271 22.4565C112.447 22.144 112.584 21.8047 112.681 21.4385V19.6733C112.623 19.4048 112.537 19.146 112.425 18.897C112.317 18.6431 112.176 18.4185 112 18.2231C111.829 18.0229 111.617 17.8643 111.363 17.7471C111.114 17.6299 110.818 17.5713 110.477 17.5713C110.106 17.5713 109.786 17.6494 109.517 17.8057C109.254 17.957 109.036 18.167 108.865 18.4355C108.694 18.6992 108.567 19.0068 108.484 19.3584C108.406 19.7051 108.367 20.0762 108.367 20.4717ZM122.247 16.5752V17.6152H117.963V16.5752H122.247ZM119.413 14.6489H120.768V22.5371C120.768 22.8057 120.809 23.0083 120.892 23.145C120.975 23.2817 121.083 23.3721 121.215 23.416C121.346 23.46 121.488 23.4819 121.639 23.4819C121.752 23.4819 121.869 23.4722 121.991 23.4526C122.118 23.4282 122.213 23.4087 122.277 23.394L122.284 24.5C122.176 24.5342 122.035 24.5659 121.859 24.5952C121.688 24.6294 121.481 24.6465 121.237 24.6465C120.904 24.6465 120.599 24.5806 120.321 24.4487C120.043 24.3169 119.821 24.0972 119.654 23.7896C119.493 23.4771 119.413 23.0571 119.413 22.5298V14.6489ZM123.031 20.6255V20.457C123.031 19.8857 123.114 19.356 123.28 18.8677C123.446 18.3745 123.686 17.9473 123.998 17.5859C124.311 17.2197 124.689 16.9365 125.133 16.7363C125.578 16.5312 126.076 16.4287 126.627 16.4287C127.184 16.4287 127.685 16.5312 128.129 16.7363C128.578 16.9365 128.959 17.2197 129.271 17.5859C129.589 17.9473 129.831 18.3745 129.997 18.8677C130.163 19.356 130.246 19.8857 130.246 20.457V20.6255C130.246 21.1968 130.163 21.7266 129.997 22.2148C129.831 22.7031 129.589 23.1304 129.271 23.4966C128.959 23.8579 128.581 24.1411 128.136 24.3462C127.697 24.5464 127.199 24.6465 126.642 24.6465C126.085 24.6465 125.585 24.5464 125.141 24.3462C124.696 24.1411 124.315 23.8579 123.998 23.4966C123.686 23.1304 123.446 22.7031 123.28 22.2148C123.114 21.7266 123.031 21.1968 123.031 20.6255ZM124.386 20.457V20.6255C124.386 21.021 124.433 21.3945 124.525 21.7461C124.618 22.0928 124.757 22.4004 124.943 22.6689C125.133 22.9375 125.37 23.1499 125.653 23.3062C125.937 23.4575 126.266 23.5332 126.642 23.5332C127.013 23.5332 127.338 23.4575 127.616 23.3062C127.899 23.1499 128.134 22.9375 128.319 22.6689C128.505 22.4004 128.644 22.0928 128.737 21.7461C128.834 21.3945 128.883 21.021 128.883 20.6255V20.457C128.883 20.0664 128.834 19.6978 128.737 19.3511C128.644 18.9995 128.502 18.6895 128.312 18.4209C128.126 18.1475 127.892 17.9326 127.609 17.7764C127.331 17.6201 127.003 17.542 126.627 17.542C126.256 17.542 125.929 17.6201 125.646 17.7764C125.368 17.9326 125.133 18.1475 124.943 18.4209C124.757 18.6895 124.618 18.9995 124.525 19.3511C124.433 19.6978 124.386 20.0664 124.386 20.457ZM138.237 23.5332C138.559 23.5332 138.857 23.4673 139.13 23.3354C139.404 23.2036 139.629 23.0229 139.804 22.7935C139.98 22.5591 140.08 22.293 140.105 21.9951H141.394C141.369 22.4639 141.211 22.9009 140.918 23.3062C140.629 23.7065 140.251 24.0312 139.782 24.2803C139.314 24.5244 138.798 24.6465 138.237 24.6465C137.641 24.6465 137.121 24.5415 136.677 24.3315C136.237 24.1216 135.871 23.8335 135.578 23.4673C135.29 23.1011 135.073 22.6812 134.926 22.2075C134.785 21.729 134.714 21.2236 134.714 20.6914V20.3838C134.714 19.8516 134.785 19.3486 134.926 18.875C135.073 18.3965 135.29 17.9741 135.578 17.6079C135.871 17.2417 136.237 16.9536 136.677 16.7437C137.121 16.5337 137.641 16.4287 138.237 16.4287C138.857 16.4287 139.399 16.5557 139.863 16.8096C140.327 17.0586 140.691 17.4004 140.954 17.835C141.223 18.2646 141.369 18.7529 141.394 19.2998H140.105C140.08 18.9727 139.987 18.6772 139.826 18.4136C139.67 18.1499 139.455 17.9399 139.182 17.7837C138.913 17.6226 138.598 17.542 138.237 17.542C137.822 17.542 137.473 17.625 137.19 17.791C136.911 17.9521 136.689 18.1719 136.523 18.4502C136.362 18.7236 136.245 19.0288 136.171 19.3657C136.103 19.6978 136.069 20.0371 136.069 20.3838V20.6914C136.069 21.0381 136.103 21.3799 136.171 21.7168C136.24 22.0537 136.355 22.3589 136.516 22.6323C136.682 22.9058 136.904 23.1255 137.182 23.2915C137.465 23.4526 137.817 23.5332 138.237 23.5332ZM147.29 23.145V19.0654C147.29 18.7529 147.226 18.4819 147.1 18.2524C146.977 18.0181 146.792 17.8374 146.543 17.7104C146.294 17.5835 145.986 17.52 145.62 17.52C145.278 17.52 144.978 17.5786 144.719 17.6958C144.465 17.813 144.265 17.9668 144.119 18.1572C143.977 18.3477 143.906 18.5527 143.906 18.7725H142.551C142.551 18.4893 142.624 18.2085 142.771 17.9302C142.917 17.6519 143.127 17.4004 143.401 17.1758C143.679 16.9463 144.011 16.7656 144.397 16.6338C144.787 16.4971 145.222 16.4287 145.701 16.4287C146.277 16.4287 146.785 16.5264 147.224 16.7217C147.668 16.917 148.015 17.2124 148.264 17.6079C148.518 17.9985 148.645 18.4893 148.645 19.0801V22.7715C148.645 23.0352 148.667 23.3159 148.711 23.6138C148.76 23.9116 148.83 24.168 148.923 24.3828V24.5H147.51C147.441 24.3438 147.388 24.1362 147.349 23.8774C147.309 23.6138 147.29 23.3696 147.29 23.145ZM147.524 19.6953L147.539 20.6475H146.169C145.784 20.6475 145.439 20.6792 145.137 20.7427C144.834 20.8013 144.58 20.8916 144.375 21.0137C144.17 21.1357 144.014 21.2896 143.906 21.4751C143.799 21.6558 143.745 21.8682 143.745 22.1123C143.745 22.3613 143.801 22.5884 143.913 22.7935C144.026 22.9985 144.194 23.1621 144.419 23.2842C144.648 23.4014 144.929 23.46 145.261 23.46C145.676 23.46 146.042 23.3721 146.36 23.1963C146.677 23.0205 146.929 22.8057 147.114 22.5518C147.305 22.2979 147.407 22.0513 147.422 21.812L148 22.4639C147.966 22.6689 147.873 22.896 147.722 23.145C147.571 23.394 147.368 23.6333 147.114 23.8628C146.865 24.0874 146.567 24.2754 146.221 24.4268C145.879 24.5732 145.493 24.6465 145.063 24.6465C144.526 24.6465 144.055 24.5415 143.65 24.3315C143.249 24.1216 142.937 23.8408 142.712 23.4893C142.493 23.1328 142.383 22.7349 142.383 22.2954C142.383 21.8706 142.466 21.4971 142.632 21.1748C142.798 20.8477 143.037 20.5767 143.35 20.3618C143.662 20.1421 144.038 19.9761 144.477 19.8638C144.917 19.7515 145.408 19.6953 145.95 19.6953H147.524ZM151.831 17.8203V24.5H150.476V16.5752H151.795L151.831 17.8203ZM154.307 16.5312L154.3 17.791C154.187 17.7666 154.08 17.752 153.977 17.7471C153.88 17.7373 153.767 17.7324 153.64 17.7324C153.328 17.7324 153.052 17.7812 152.813 17.8789C152.573 17.9766 152.371 18.1133 152.205 18.2891C152.039 18.4648 151.907 18.6748 151.809 18.9189C151.717 19.1582 151.655 19.4219 151.626 19.71L151.245 19.9297C151.245 19.4512 151.292 19.002 151.384 18.582C151.482 18.1621 151.631 17.791 151.831 17.4688C152.031 17.1416 152.285 16.8877 152.593 16.707C152.905 16.5215 153.277 16.4287 153.706 16.4287C153.804 16.4287 153.916 16.4409 154.043 16.4653C154.17 16.4849 154.258 16.5068 154.307 16.5312ZM158.943 16.5752V17.6152H154.659V16.5752H158.943ZM156.109 14.6489H157.464V22.5371C157.464 22.8057 157.505 23.0083 157.588 23.145C157.671 23.2817 157.779 23.3721 157.911 23.416C158.042 23.46 158.184 23.4819 158.335 23.4819C158.448 23.4819 158.565 23.4722 158.687 23.4526C158.814 23.4282 158.909 23.4087 158.973 23.394L158.98 24.5C158.873 24.5342 158.731 24.5659 158.555 24.5952C158.384 24.6294 158.177 24.6465 157.933 24.6465C157.601 24.6465 157.295 24.5806 157.017 24.4487C156.739 24.3169 156.517 24.0972 156.351 23.7896C156.189 23.4771 156.109 23.0571 156.109 22.5298V14.6489Z" fill="white"/>
</g>
<defs>
<filter id="filter0_d_1152_50" x="0" y="0" width="228" height="40" filterUnits="userSpaceOnUse" color-interpolation-filters="sRGB">
<feFlood flood-opacity="0" result="BackgroundImageFix"/>
<feColorMatrix in="SourceAlpha" type="matrix" values="0 0 0 0 0 0 0 0 0 0 0 0 0 0 0 0 0 0 127 0" result="hardAlpha"/>
<feOffset dy="1"/>
<feGaussianBlur stdDeviation="1"/>
<feColorMatrix type="matrix" values="0 0 0 0 0.0627451 0 0 0 0 0.0941176 0 0 0 0 0.156863 0 0 0 0.05 0"/>
<feBlend mode="normal" in2="BackgroundImageFix" result="effect1_dropShadow_1152_50"/>
<feBlend mode="normal" in="SourceGraphic" in2="effect1_dropShadow_1152_50" result="shape"/>
</filter>
</defs>
</svg>
