<svg width="40" height="40" viewBox="0 0 40 40" fill="none" xmlns="http://www.w3.org/2000/svg">
<g filter="url(#filter0_d_1159_188)">
<rect x="2" y="1" width="36" height="36" rx="8" fill="#187727"/>
<path d="M26.2031 19C26.2031 19.1865 26.129 19.3653 25.9972 19.4972C25.8653 19.629 25.6865 19.7031 25.5 19.7031H14.5C14.3135 19.7031 14.1347 19.629 14.0028 19.4972C13.871 19.3653 13.7969 19.1865 13.7969 19C13.7969 18.8135 13.871 18.6347 14.0028 18.5028C14.1347 18.371 14.3135 18.2969 14.5 18.2969H25.5C25.6865 18.2969 25.8653 18.371 25.9972 18.5028C26.129 18.6347 26.2031 18.8135 26.2031 19Z" fill="#B9B9B9" stroke="#B9B9B9" stroke-width="0.09375"/>
</g>
<defs>
<filter id="filter0_d_1159_188" x="0" y="0" width="40" height="40" filterUnits="userSpaceOnUse" color-interpolation-filters="sRGB">
<feFlood flood-opacity="0" result="BackgroundImageFix"/>
<feColorMatrix in="SourceAlpha" type="matrix" values="0 0 0 0 0 0 0 0 0 0 0 0 0 0 0 0 0 0 127 0" result="hardAlpha"/>
<feOffset dy="1"/>
<feGaussianBlur stdDeviation="1"/>
<feColorMatrix type="matrix" values="0 0 0 0 0.0627451 0 0 0 0 0.0941176 0 0 0 0 0.156863 0 0 0 0.05 0"/>
<feBlend mode="normal" in2="BackgroundImageFix" result="effect1_dropShadow_1159_188"/>
<feBlend mode="normal" in="SourceGraphic" in2="effect1_dropShadow_1159_188" result="shape"/>
</filter>
</defs>
</svg>
