<svg width="40" height="40" viewBox="0 0 40 40" fill="none" xmlns="http://www.w3.org/2000/svg">
<g filter="url(#filter0_d_1159_193)">
<rect x="2" y="1" width="36" height="36" rx="8" fill="#00AE1C"/>
<path d="M26.25 19C26.25 19.1989 26.171 19.3897 26.0303 19.5303C25.8897 19.671 25.6989 19.75 25.5 19.75H20.75V24.5C20.75 24.6989 20.671 24.8897 20.5303 25.0303C20.3897 25.171 20.1989 25.25 20 25.25C19.8011 25.25 19.6103 25.171 19.4697 25.0303C19.329 24.8897 19.25 24.6989 19.25 24.5V19.75H14.5C14.3011 19.75 14.1103 19.671 13.9697 19.5303C13.829 19.3897 13.75 19.1989 13.75 19C13.75 18.8011 13.829 18.6103 13.9697 18.4697C14.1103 18.329 14.3011 18.25 14.5 18.25H19.25V13.5C19.25 13.3011 19.329 13.1103 19.4697 12.9697C19.6103 12.829 19.8011 12.75 20 12.75C20.1989 12.75 20.3897 12.829 20.5303 12.9697C20.671 13.1103 20.75 13.3011 20.75 13.5V18.25H25.5C25.6989 18.25 25.8897 18.329 26.0303 18.4697C26.171 18.6103 26.25 18.8011 26.25 19Z" fill="white"/>
</g>
<defs>
<filter id="filter0_d_1159_193" x="0" y="0" width="40" height="40" filterUnits="userSpaceOnUse" color-interpolation-filters="sRGB">
<feFlood flood-opacity="0" result="BackgroundImageFix"/>
<feColorMatrix in="SourceAlpha" type="matrix" values="0 0 0 0 0 0 0 0 0 0 0 0 0 0 0 0 0 0 127 0" result="hardAlpha"/>
<feOffset dy="1"/>
<feGaussianBlur stdDeviation="1"/>
<feColorMatrix type="matrix" values="0 0 0 0 0.0627451 0 0 0 0 0.0941176 0 0 0 0 0.156863 0 0 0 0.05 0"/>
<feBlend mode="normal" in2="BackgroundImageFix" result="effect1_dropShadow_1159_193"/>
<feBlend mode="normal" in="SourceGraphic" in2="effect1_dropShadow_1159_193" result="shape"/>
</filter>
</defs>
</svg>
